<?xml version="1.0" standalone="no"?>
<!DOCTYPE svg PUBLIC "-//W3C//DTD SVG 20010904//EN"
 "http://www.w3.org/TR/2001/REC-SVG-20010904/DTD/svg10.dtd">
<svg version="1.0" xmlns="http://www.w3.org/2000/svg"
 width="1602.000000pt" height="1602.000000pt" viewBox="0 0 1602.000000 1602.000000"
 preserveAspectRatio="xMidYMid meet">
<metadata>
Created by potrace 1.14, written by Peter Selinger 2001-2017
</metadata>
<g transform="translate(0.000000,1602.000000) scale(0.100000,-0.100000)"
fill="#000000" stroke="none">
<path d="M3568 16005 c-204 -50 -365 -212 -413 -418 -13 -54 -15 -991 -15
-7548 0 -7426 0 -7486 20 -7563 27 -107 63 -169 145 -251 82 -82 144 -118 251
-145 76 -20 120 -20 2943 -20 3176 0 3291 2 3851 66 413 47 888 158 1180 276
532 216 865 495 1069 898 110 217 172 440 213 760 9 73 13 1642 15 6773 4
7364 9 6749 -59 6887 -42 87 -150 195 -239 238 -139 67 255 62 -4549 61 -3670
-1 -4364 -3 -4412 -14z m8884 -177 c91 -45 147 -103 191 -196 l32 -67 3 -6605
c2 -4854 0 -6647 -8 -6765 -40 -554 -179 -905 -480 -1205 -225 -225 -499 -383
-883 -509 -450 -147 -966 -228 -1667 -261 -132 -6 -1331 -10 -3112 -10 l-2898
0 -63 21 c-113 37 -212 131 -253 242 -19 51 -19 149 -19 7572 l0 7520 32 67
c17 37 50 87 72 111 44 48 135 101 197 116 23 5 1798 8 4410 8 l4370 -2 76
-37z"/>
<path d="M5416 13861 c-15 -10 -37 -32 -47 -47 -18 -28 -19 -93 -19 -2349 0
-2283 0 -2321 20 -2352 10 -18 34 -40 52 -50 32 -17 146 -18 2565 -18 l2532 0
27 21 c15 11 37 33 48 48 l21 27 0 2322 0 2322 -23 33 c-49 67 178 62 -2614
62 -2465 0 -2534 -1 -2562 -19z"/>
<path d="M4786 6120 c-31 -10 -71 -43 -89 -75 -8 -14 -14 -134 -17 -380 l-5
-360 -360 -5 c-246 -3 -366 -9 -380 -17 -11 -6 -31 -23 -45 -38 l-25 -27 -3
-380 c-4 -529 -44 -487 471 -488 l347 0 0 -351 c0 -388 1 -397 64 -442 31 -22
34 -22 411 -22 377 0 380 0 411 22 63 45 64 54 64 442 l0 351 348 0 c321 0
350 2 389 20 25 11 51 33 63 52 20 32 20 46 18 415 l-3 383 -38 37 -37 38
-368 5 -367 5 -5 362 c-5 345 -6 363 -26 389 -11 15 -33 37 -48 48 -26 20 -41
21 -384 23 -196 1 -370 -2 -386 -7z"/>
<path d="M11440 6054 c-174 -37 -335 -162 -409 -318 -50 -103 -65 -170 -64
-276 1 -208 103 -393 280 -507 97 -63 187 -88 318 -88 127 0 179 12 286 67
127 65 242 196 290 332 30 85 37 257 15 346 -27 106 -72 186 -153 270 -148
155 -355 219 -563 174z"/>
<path d="M9851 5315 c-262 -73 -450 -319 -451 -588 0 -67 24 -181 52 -246 30
-70 103 -166 166 -217 104 -86 261 -144 387 -144 182 0 383 104 489 253 234
328 96 778 -283 925 -84 32 -273 41 -360 17z"/>
<path d="M11940 4710 c-11 -7 -10 -26 4 -117 26 -166 26 -165 41 -153 9 8 10
21 4 48 -4 20 -7 37 -6 38 23 17 89 54 96 54 5 0 23 -12 40 -26 28 -23 51 -25
51 -5 0 6 -172 143 -205 163 -6 4 -17 3 -25 -2z m88 -79 l33 -29 -36 -22 c-21
-13 -40 -19 -45 -14 -4 5 -11 33 -15 62 -7 51 -6 53 11 43 11 -6 34 -24 52
-40z"/>
<path d="M10348 3843 c-37 -19 -66 -38 -64 -42 41 -81 141 -241 150 -241 6 0
41 19 76 43 61 39 65 44 68 84 4 48 -22 83 -61 83 -20 0 -23 4 -19 34 3 25 -2
39 -19 55 -31 29 -53 26 -131 -16z m103 -3 c33 -18 24 -56 -23 -90 -22 -16
-44 -30 -49 -30 -7 0 -49 62 -49 73 0 7 82 57 93 57 5 0 17 -5 28 -10z m83
-116 c17 -16 20 -42 8 -60 -13 -19 -92 -65 -103 -59 -5 4 -18 24 -29 45 l-20
39 43 25 c48 30 79 33 101 10z"/>
<path d="M9308 2194 c-43 -25 -78 -50 -78 -55 0 -13 17 -11 51 7 17 8 32 14
34 12 1 -2 26 -43 55 -93 63 -108 56 -99 70 -90 10 6 -2 33 -77 162 l-25 43
36 21 c36 21 47 39 24 39 -7 -1 -48 -21 -90 -46z"/>
<path d="M7623 2158 c-40 -23 -73 -45 -73 -50 0 -13 24 -9 46 7 10 8 22 15 25
15 4 0 30 -42 59 -92 62 -110 58 -104 71 -91 8 8 -3 35 -40 98 -28 48 -51 91
-51 95 0 5 13 17 29 26 17 10 28 21 25 26 -8 13 -15 10 -91 -34z"/>
<path d="M9095 2070 c-27 -17 -54 -32 -60 -34 -11 -4 34 -98 86 -180 21 -33
34 -45 41 -38 7 7 2 24 -16 55 l-27 45 23 16 c31 22 61 20 119 -9 35 -18 54
-23 66 -16 14 7 7 14 -35 35 -28 14 -59 26 -68 26 -15 0 -15 2 0 25 20 31 20
54 0 83 -21 31 -67 28 -129 -8z m99 -6 c21 -20 20 -47 -1 -66 -17 -15 -77 -48
-87 -48 -2 0 -13 16 -25 35 l-20 35 37 23 c63 40 75 43 96 21z"/>
<path d="M7454 2061 c-17 -10 -37 -33 -44 -50 -28 -69 41 -181 112 -181 39 0
98 33 98 55 0 20 -7 19 -37 -5 -28 -22 -64 -26 -94 -10 -22 13 -59 80 -59 110
0 25 51 80 74 80 9 0 16 5 16 10 0 16 -32 12 -66 -9z"/>
<path d="M7242 1939 l-52 -31 18 -31 c11 -18 38 -65 61 -104 23 -40 45 -73 49
-73 15 0 112 61 112 70 0 15 -11 12 -58 -15 l-43 -24 -19 32 c-27 44 -26 49
20 75 22 12 40 27 40 32 0 15 -11 12 -48 -10 -44 -27 -55 -25 -75 10 l-18 30
45 27 c26 15 46 31 46 35 0 15 -25 7 -78 -23z"/>
<path d="M8888 1947 c-13 -11 -13 -27 5 -139 15 -94 24 -128 35 -128 10 0 13
12 10 48 -3 47 -3 47 43 71 l46 25 28 -22 c30 -24 59 -29 53 -10 -2 6 -49 46
-105 89 -83 65 -103 76 -115 66z m72 -66 l44 -39 -34 -21 c-19 -11 -38 -21
-41 -21 -4 0 -10 21 -14 46 -3 26 -9 53 -12 60 -9 24 10 15 57 -25z"/>
<path d="M8720 1854 c-41 -24 -79 -45 -84 -47 -5 -2 -6 -9 -2 -15 5 -9 17 -7
44 7 l38 19 54 -94 c30 -52 60 -94 67 -94 20 0 17 7 -42 110 l-54 94 32 20
c43 26 42 25 31 35 -5 4 -42 -11 -84 -35z"/>
<path d="M7010 1804 c0 -4 8 -21 19 -38 10 -17 37 -64 60 -104 l43 -73 56 32
c69 38 65 35 58 48 -4 6 -23 0 -49 -15 -23 -13 -45 -24 -49 -24 -3 0 -30 41
-58 90 -28 50 -58 90 -66 90 -8 0 -14 -3 -14 -6z"/>
<path d="M6878 1727 c-32 -17 -58 -35 -58 -40 0 -7 106 -196 115 -205 4 -4 74
32 100 51 33 25 10 30 -34 8 -22 -12 -44 -21 -49 -21 -8 0 -46 70 -40 75 2 1
20 12 41 24 20 12 37 27 37 32 0 13 -6 12 -52 -12 l-42 -21 -18 22 c-27 33
-22 47 22 72 22 13 40 29 40 36 0 15 5 17 -62 -21z"/>
<path d="M8508 1734 c-53 -28 -65 -92 -23 -120 23 -15 30 -15 91 0 74 19 94
12 94 -30 0 -40 -96 -85 -115 -54 -8 13 -35 13 -35 0 0 -5 11 -17 25 -26 22
-14 32 -15 64 -5 85 25 117 101 60 143 -25 19 -29 19 -87 4 -34 -8 -68 -13
-76 -10 -22 9 -26 30 -9 53 21 31 58 43 88 29 30 -13 43 -5 25 17 -16 19 -67
19 -102 -1z"/>
<path d="M6690 1624 c-37 -25 -50 -45 -50 -76 0 -41 38 -62 95 -54 60 9 85 1
85 -29 0 -23 -41 -65 -64 -65 -19 0 -39 -17 -32 -28 10 -16 60 4 96 38 38 36
41 82 6 105 -19 13 -38 15 -84 9 -53 -6 -61 -4 -71 13 -13 26 7 55 49 73 16 7
30 16 30 21 0 15 -34 10 -60 -7z"/>
</g>
</svg>
