<?xml version="1.0" encoding="UTF-8" standalone="no"?>
<svg
   xmlns:dc="http://purl.org/dc/elements/1.1/"
   xmlns:cc="http://creativecommons.org/ns#"
   xmlns:rdf="http://www.w3.org/1999/02/22-rdf-syntax-ns#"
   xmlns:svg="http://www.w3.org/2000/svg"
   xmlns="http://www.w3.org/2000/svg"
   xmlns:sodipodi="http://sodipodi.sourceforge.net/DTD/sodipodi-0.dtd"
   xmlns:inkscape="http://www.inkscape.org/namespaces/inkscape"
   sodipodi:docname="title.svg"
   inkscape:version="1.0 (4035a4fb49, 2020-05-01)"
   id="svg8"
   version="1.1"
   viewBox="0 0 89 20"
   height="20mm"
   width="89mm">
  <defs
     id="defs2" />
  <sodipodi:namedview
     inkscape:window-maximized="1"
     inkscape:window-y="-8"
     inkscape:window-x="-8"
     inkscape:window-height="987"
     inkscape:window-width="1680"
     showgrid="false"
     inkscape:document-rotation="0"
     inkscape:current-layer="layer1"
     inkscape:document-units="mm"
     inkscape:cy="511.99661"
     inkscape:cx="351.54815"
     inkscape:zoom="0.49497475"
     inkscape:pageshadow="2"
     inkscape:pageopacity="0.0"
     borderopacity="1.0"
     bordercolor="#666666"
     pagecolor="#ffffff"
     id="base" />
  <metadata
     id="metadata5">
    <rdf:RDF>
      <cc:Work
         rdf:about="">
        <dc:format>image/svg+xml</dc:format>
        <dc:type
           rdf:resource="http://purl.org/dc/dcmitype/StillImage" />
        <dc:title></dc:title>
      </cc:Work>
    </rdf:RDF>
  </metadata>
  <g
     id="layer1"
     inkscape:groupmode="layer"
     inkscape:label="Layer 1">
    <path
       id="path849"
       d="M 1.3162148,9.999999 V 2.489778 h 3.0041099 3.00408 V 3.991824 5.493866 H 8.8264548 10.328485 V 6.995911 8.497957 H 8.8264548 7.3244047 v 1.502042 1.502045 h 1.5020501 1.5020302 v 3.004088 3.00409 H 5.8223447 1.3162148 Z m 6.0081899,3.00409 v -1.502045 h -1.50206 -1.50202 v 1.502045 1.502043 h 1.50202 1.50206 z m 0,-6.008178 V 5.493866 h -1.50206 -1.50202 v 1.502045 1.502046 h 1.50202 1.50206 z M 11.079525,9.999999 V 2.489778 h 1.50202 1.50206 v 6.008179 6.008175 h 3.00408 3.0041 v 1.502045 1.502045 h -4.50613 -4.50613 z m 9.76328,0 V 2.489778 h 4.50613 4.50613 v 7.510221 7.510223 h -1.50205 -1.50203 v -3.00409 -3.004088 h -1.50205 -1.50205 v 3.004088 3.00409 h -1.50203 -1.50205 z m 6.00818,-3.004088 V 5.493866 h -1.50205 -1.50205 v 1.502045 1.502046 h 1.50205 1.50205 z m 3.7551,7.510221 v -3.004088 h 1.50205 1.50205 V 9.999999 8.497957 h 1.50203 1.50205 V 6.995911 5.493866 h -3.00408 -3.0041 V 3.991824 2.489778 h 4.13062 4.13063 v 3.004088 3.004091 h -1.12655 -1.12652 v 1.502042 1.502045 h -1.50205 -1.50203 v 1.502045 1.502043 h 2.62858 2.62857 v 1.502045 1.502045 h -4.13063 -4.13062 z m 9.7633,-4.506133 V 2.489778 h 4.1306 4.13063 v 7.510221 7.510223 h -4.13063 -4.1306 z m 6.00816,0 V 5.493866 h -1.87756 -1.87753 v 4.506133 4.506133 h 1.87753 1.87756 z m 3.75512,0 V 2.489778 h 2.62857 2.62858 v 1.502046 1.502042 h 1.50205 1.50205 v 1.502045 1.502046 h -1.50205 -1.50205 v 1.502042 1.502045 h 1.50205 1.50205 v 3.004088 3.00409 h -1.50205 -1.50205 v -3.00409 -3.004088 h -1.50203 -1.50205 v 3.004088 3.00409 h -1.12655 -1.12652 z m 5.25715,-3.004088 V 5.493866 h -1.50203 -1.50205 v 1.502045 1.502046 h 1.50205 1.50203 z m 3.75512,3.004088 V 2.489778 h 3.00408 3.0041 v 1.502046 1.502042 h 1.50203 1.50205 v 1.502045 1.502046 h -1.50205 -1.50203 v 1.502042 1.502045 h 1.50203 1.50205 v 3.004088 3.00409 h -4.50613 -4.50613 z m 6.00818,3.00409 v -1.502045 h -1.50205 -1.50205 v 1.502045 1.502043 h 1.50205 1.50205 z m 0,-6.008178 V 5.493866 h -1.50205 -1.50205 v 1.502045 1.502046 h 1.50205 1.50205 z m 3.75509,3.004088 V 2.489778 h 4.50614 4.50613 v 7.510221 7.510223 h -4.50613 -4.50614 z m 6.00819,0 V 5.493866 h -1.50205 -1.50203 v 4.506133 4.506133 h 1.50203 1.50205 z m 6.7592,3.00409 V 8.497957 h -1.50205 -1.50203 V 5.493866 2.489778 h 1.50203 1.50205 v 3.004088 3.004091 h 1.50205 1.50203 V 5.493866 2.489778 h 1.50205 1.50206 v 3.004088 3.004091 h -1.50206 -1.50205 v 4.506132 4.506133 h -1.50203 -1.50205 z"
       style="fill:#000000;stroke-width:1" />
  </g>
</svg>
