<?xml version="1.0" encoding="UTF-8" standalone="no"?>
<svg
   xmlns:dc="http://purl.org/dc/elements/1.1/"
   xmlns:cc="http://creativecommons.org/ns#"
   xmlns:rdf="http://www.w3.org/1999/02/22-rdf-syntax-ns#"
   xmlns:svg="http://www.w3.org/2000/svg"
   xmlns="http://www.w3.org/2000/svg"
   xmlns:sodipodi="http://sodipodi.sourceforge.net/DTD/sodipodi-0.dtd"
   xmlns:inkscape="http://www.inkscape.org/namespaces/inkscape"
   inkscape:version="1.0 (4035a4fb49, 2020-05-01)"
   sodipodi:docname="icon.svg"
   id="svg24"
   version="1.1"
   width="128"
   height="128">
  <metadata
     id="metadata30">
    <rdf:RDF>
      <cc:Work
         rdf:about="">
        <dc:format>image/svg+xml</dc:format>
        <dc:type
           rdf:resource="http://purl.org/dc/dcmitype/StillImage" />
        <dc:title></dc:title>
      </cc:Work>
    </rdf:RDF>
  </metadata>
  <defs
     id="defs28" />
  <sodipodi:namedview
     inkscape:current-layer="svg24"
     inkscape:window-maximized="1"
     inkscape:window-y="270"
     inkscape:window-x="1672"
     inkscape:cy="69.133805"
     inkscape:cx="65.376464"
     inkscape:zoom="3.2734375"
     showgrid="false"
     id="namedview26"
     inkscape:window-height="705"
     inkscape:window-width="1366"
     inkscape:pageshadow="2"
     inkscape:pageopacity="0"
     guidetolerance="10"
     gridtolerance="10"
     objecttolerance="10"
     borderopacity="1"
     bordercolor="#666666"
     pagecolor="#ffffff" />
  <rect
     id="rect2"
     stroke-width="4"
     stroke="#212532"
     fill="#363d52"
     rx="14"
     height="124"
     width="124"
     y="2"
     x="2" />
  <path
     id="rect858"
     style="fill:#f2f2f2;stroke:#000000;stroke-width:1.659;stroke-linecap:round;stroke-linejoin:round;stroke-miterlimit:4;stroke-dasharray:none"
     d="m 38.618583,10.319221 h 56.27482 c 1.723435,0 3.110899,1.444418 3.110899,3.238604 v 88.554655 c 0,8.24246 -2.373383,16.05903 -23.810409,16.05903 h -35.57531 c -1.72344,0 -3.110904,-1.44442 -3.110904,-3.23861 V 13.557825 c 0,-1.794186 1.387464,-3.238604 3.110904,-3.238604 z"
     sodipodi:nodetypes="sssssssss" />
  <path
     id="rect1289"
     style="fill:#999999;stroke:#808080;stroke-width:1.759;stroke-linecap:round;stroke-linejoin:round;stroke-miterlimit:4;stroke-dasharray:none"
     d="m 41.080914,19.496217 h 51.370453 c 0.552117,0 0.996605,0.462733 0.996605,1.037514 v 35.424747 c 0,2.803147 -2.792505,5.947461 -5.974967,5.947461 H 41.080914 c -0.552122,0 -0.996605,-0.462732 -0.996605,-1.037515 V 20.533731 c 0,-0.574781 0.444483,-1.037514 0.996605,-1.037514 z"
     sodipodi:nodetypes="sssssssss" />
  <rect
     style="fill:#576b09;fill-opacity:1;stroke:none;stroke-width:7.55908;stroke-linecap:round;stroke-linejoin:round"
     id="rect1507"
     width="34.603008"
     height="33.109341"
     x="49.43486"
     y="24.33242"
     ry="1.0375147" />
  <path
     id="rect3450"
     style="fill:#000000;fill-opacity:1;stroke:none;stroke-width:8.39757;stroke-linecap:round;stroke-linejoin:round"
     d="m 46.089448,77.282625 c -0.552118,0 -0.996644,0.462772 -0.996644,1.037555 v 4.5767 h -4.396241 c -0.552122,0 -0.996644,0.462516 -0.996644,1.0373 v 4.429389 c 0,0.574784 0.444522,1.037556 0.996644,1.037556 h 4.396241 v 4.576713 c 0,0.574784 0.444526,1.037556 0.996644,1.037556 h 4.254738 c 0.552118,0 0.99665,-0.462772 0.99665,-1.037556 v -4.576713 h 4.39598 c 0.552118,0 0.996644,-0.462772 0.996644,-1.037556 V 83.93418 c 0,-0.574784 -0.444526,-1.0373 -0.996644,-1.0373 h -4.39598 v -4.5767 c 0,-0.574783 -0.444532,-1.037555 -0.99665,-1.037555 z" />
  <ellipse
     ry="4.1541681"
     rx="3.9903636"
     style="fill:#a7105f;fill-opacity:1;stroke:none;stroke-width:6.41083;stroke-linecap:round;stroke-linejoin:round"
     id="path3677"
     cx="79.98793"
     cy="86.830933" />
  <ellipse
     ry="4.1541681"
     rx="3.9903636"
     style="fill:#a7105f;fill-opacity:1;stroke:none;stroke-width:6.41083;stroke-linecap:round;stroke-linejoin:round"
     id="path3677-6"
     cx="90.231857"
     cy="81.808739" />
  <rect
     style="fill:#808080;fill-opacity:1;stroke:#808080;stroke-width:0.95929104;stroke-linecap:round;stroke-linejoin:round;stroke-miterlimit:4;stroke-dasharray:none"
     id="rect5716"
     width="8.7860146"
     height="2.2104151"
     x="-1.970762"
     y="118.86758"
     ry="1.0274396"
     transform="matrix(0.85709545,-0.51515763,0.48499393,0.87451752,0,0)" />
  <rect
     style="fill:#808080;fill-opacity:1;stroke:#808080;stroke-width:0.95929104;stroke-linecap:round;stroke-linejoin:round;stroke-miterlimit:4;stroke-dasharray:none"
     id="rect5716-1"
     width="8.7860146"
     height="2.2104151"
     x="7.8189549"
     y="124.7763"
     ry="1.0274396"
     transform="matrix(0.85709545,-0.51515763,0.48499393,0.87451752,0,0)" />
  <g
     aria-label="SELECT"
     id="text6988"
     style="font-size:10.5833px;line-height:1.25;font-family:Arial;-inkscape-font-specification:Arial;stroke-width:1.97935"
     transform="matrix(0.21241054,-0.12766946,0.12263529,0.22113001,18.173776,81.800327)">
    <path
       d="m 92.235597,175.5852 q 0,0.48058 -0.19637,0.84232 -0.19637,0.36173 -0.547768,0.60461 -0.351399,0.23771 -0.847491,0.35657 -0.490924,0.11885 -1.085202,0.11885 -0.268716,0 -0.537433,-0.0207 -0.263549,-0.0207 -0.511595,-0.0517 -0.242878,-0.031 -0.459919,-0.0724 -0.21704,-0.0413 -0.392739,-0.0879 v -0.88883 q 0.387572,0.14469 0.868161,0.22737 0.485757,0.0827 1.100705,0.0827 0.444415,0 0.754473,-0.0672 0.315225,-0.0724 0.511595,-0.20671 0.201538,-0.13952 0.289387,-0.33589 0.09302,-0.19637 0.09302,-0.44959 0,-0.27388 -0.155029,-0.46508 -0.149861,-0.19637 -0.397908,-0.34624 -0.248046,-0.15502 -0.568438,-0.27905 -0.315226,-0.12919 -0.645954,-0.26355 -0.330728,-0.13435 -0.651121,-0.28938 -0.315225,-0.1602 -0.563271,-0.37207 -0.248046,-0.21704 -0.403075,-0.50643 -0.149861,-0.28939 -0.149861,-0.68729 0,-0.34624 0.144693,-0.68213 0.144694,-0.3359 0.449584,-0.59428 0.30489,-0.26355 0.780312,-0.42374 0.480589,-0.1602 1.142045,-0.1602 0.170532,0 0.366902,0.0155 0.201537,0.0155 0.403074,0.0465 0.206706,0.0258 0.403075,0.062 0.201538,0.0362 0.372069,0.0775 v 0.82682 q -0.397907,-0.11369 -0.795814,-0.17053 -0.397907,-0.062 -0.769976,-0.062 -0.790647,0 -1.162716,0.26355 -0.37207,0.26355 -0.37207,0.70797 0,0.27388 0.149862,0.47025 0.155028,0.19637 0.403074,0.3514 0.248047,0.15503 0.563272,0.28422 0.320393,0.12402 0.651121,0.25838 0.330728,0.13436 0.645953,0.29456 0.320393,0.16019 0.568439,0.3824 0.248046,0.21704 0.397907,0.5116 0.155029,0.29455 0.155029,0.69763 z"
       style="font-family:Consolas;-inkscape-font-specification:Consolas;fill:#800080;stroke-width:1.97935"
       id="path23995" />
    <path
       d="m 97.78046,177.41454 h -3.839546 v -6.75409 h 3.839546 v 0.77514 h -2.919709 v 2.09289 h 2.806022 v 0.77514 h -2.806022 v 2.32544 h 2.919709 z"
       style="font-family:Consolas;-inkscape-font-specification:Consolas;fill:#800080;stroke-width:1.97935"
       id="path23997" />
    <path
       d="m 103.81108,177.41454 h -3.886055 v -6.75409 h 0.935345 v 5.96861 h 2.95071 z"
       style="font-family:Consolas;-inkscape-font-specification:Consolas;fill:#800080;stroke-width:1.97935"
       id="path23999" />
    <path
       d="m 109.41795,177.41454 h -3.83954 v -6.75409 h 3.83954 v 0.77514 h -2.9197 v 2.09289 h 2.80602 v 0.77514 h -2.80602 v 2.32544 h 2.9197 z"
       style="font-family:Consolas;-inkscape-font-specification:Consolas;fill:#800080;stroke-width:1.97935"
       id="path24001" />
    <path
       d="m 115.50025,177.16132 q -0.81132,0.3359 -1.70015,0.3359 -1.43143,0 -2.20141,-0.85266 -0.76481,-0.85783 -0.76481,-2.53214 0,-0.81132 0.21188,-1.4676 0.21187,-0.65629 0.60461,-1.11104 0.39274,-0.45992 0.95084,-0.70797 0.55811,-0.24804 1.25057,-0.24804 0.47025,0 0.87333,0.0827 0.40307,0.0775 0.77514,0.24288 v 0.90433 q -0.3669,-0.20154 -0.75964,-0.30489 -0.39274,-0.10852 -0.85783,-0.10852 -0.47542,0 -0.86299,0.18087 -0.3824,0.1757 -0.65112,0.51676 -0.26872,0.3359 -0.41341,0.82682 -0.14469,0.48576 -0.14469,1.11104 0,1.31258 0.53226,1.9792 0.53227,0.66662 1.56063,0.66662 0.43408,0 0.83198,-0.0982 0.39791,-0.10335 0.76481,-0.28422 z"
       style="font-family:Consolas;-inkscape-font-specification:Consolas;fill:#800080;stroke-width:1.97935"
       id="path24003" />
    <path
       d="m 121.55154,171.44593 h -1.99987 v 5.96861 h -0.93017 v -5.96861 h -1.99987 v -0.78548 h 4.92991 z"
       style="font-family:Consolas;-inkscape-font-specification:Consolas;fill:#800080;stroke-width:1.97935"
       id="path24005" />
  </g>
  <g
     aria-label="START"
     id="text24314"
     style="font-size:10.5833px;line-height:1.25;font-family:Arial;-inkscape-font-specification:Arial;stroke-width:1.97935"
     transform="matrix(0.19408101,-0.11665249,0.11205273,0.20204805,32.749797,85.68561)">
    <path
       d="m 95.497448,168.72598 0.945675,-0.0827 q 0.06718,0.56844 0.310058,0.93534 0.248046,0.36174 0.764809,0.58911 0.516762,0.22221 1.162716,0.22221 0.573606,0 1.012855,-0.17053 0.439249,-0.17053 0.651119,-0.46509 0.21704,-0.29972 0.21704,-0.65112 0,-0.35656 -0.2067,-0.62011 -0.20671,-0.26872 -0.68213,-0.44959 -0.30489,-0.11885 -1.34875,-0.3669 -1.043861,-0.25321 -1.462439,-0.47542 -0.542601,-0.28422 -0.811317,-0.7028 -0.263549,-0.42374 -0.263549,-0.94567 0,-0.57361 0.32556,-1.0697 0.325561,-0.50126 0.950844,-0.75964 0.625282,-0.25838 1.390091,-0.25838 0.842323,0 1.483109,0.27388 0.645951,0.26872 0.992181,0.79581 0.34623,0.5271 0.37207,1.19373 l -0.96118,0.0723 q -0.0775,-0.7183 -0.527094,-1.0852 -0.444416,-0.3669 -1.317745,-0.3669 -0.909502,0 -1.32808,0.3359 -0.41341,0.33072 -0.41341,0.80098 0,0.40824 0.294555,0.67179 0.289387,0.26355 1.508947,0.5426 1.224727,0.27388 1.679477,0.48059 0.66146,0.30489 0.97668,0.77514 0.31523,0.46509 0.31523,1.07487 0,0.60461 -0.34623,1.14205 -0.34623,0.53226 -0.99735,0.83198 -0.645958,0.29456 -1.457276,0.29456 -1.028357,0 -1.725987,-0.29972 -0.692462,-0.29973 -1.090369,-0.89917 -0.39274,-0.60461 -0.41341,-1.36425 z"
       style="fill:#800080;stroke-width:1.97935"
       id="path26856" />
    <path
       d="m 104.82501,171.15993 v -6.68174 h -2.49596 v -0.894 h 6.00478 v 0.894 h -2.5063 v 6.68174 z"
       style="fill:#800080;stroke-width:1.97935"
       id="path26858" />
    <path
       d="m 107.74472,171.15993 2.90938,-7.57574 h 1.08003 l 3.10058,7.57574 h -1.14205 L 112.809,168.8655 h -3.16776 l -0.83199,2.29443 z m 2.18591,-3.11091 h 2.56831 l -0.79065,-2.09806 q -0.36173,-0.95601 -0.53743,-1.57096 -0.14469,0.72864 -0.40824,1.44694 z"
       style="fill:#800080;stroke-width:1.97935"
       id="path26860" />
    <path
       d="m 115.65119,171.15993 v -7.57574 h 3.35896 q 1.01285,0 1.53995,0.2067 0.5271,0.20154 0.84233,0.7183 0.31522,0.51676 0.31522,1.14205 0,0.80615 -0.52193,1.35908 -0.52193,0.55294 -1.6123,0.7028 0.39791,0.1912 0.60461,0.37724 0.43925,0.40307 0.83199,1.00768 l 1.31775,2.06189 h -1.2609 l -1.00252,-1.57613 q -0.43925,-0.68213 -0.72347,-1.04386 -0.28422,-0.36173 -0.5116,-0.50643 -0.22221,-0.14469 -0.45475,-0.20153 -0.17053,-0.0362 -0.5581,-0.0362 h -1.16272 v 3.36413 z m 1.00252,-4.23229 h 2.1549 q 0.6873,0 1.07487,-0.13952 0.38757,-0.1447 0.58911,-0.45476 0.20154,-0.31522 0.20154,-0.68212 0,-0.53744 -0.39274,-0.88367 -0.38758,-0.34623 -1.2299,-0.34623 h -2.39778 z"
       style="fill:#800080;stroke-width:1.97935"
       id="path26862" />
    <path
       d="m 125.01493,171.15993 v -6.68174 h -2.49596 v -0.894 h 6.00478 v 0.894 h -2.5063 v 6.68174 z"
       style="fill:#800080;stroke-width:1.97935"
       id="path26864" />
  </g>
  <g
     aria-label="A"
     id="text28559"
     style="font-size:10.5833px;line-height:1.25;font-family:Arial;-inkscape-font-specification:Arial;fill:#800080;stroke-width:1.97935"
     transform="matrix(0.19906441,-0.11964777,0.11492989,0.207236,43.037447,70.755745)">
    <path
       style="stroke-width:1.97935"
       d="m 149.73441,174.04668 2.90937,-7.57574 h 1.08003 l 3.10058,7.57574 h -1.14205 l -0.88366,-2.29443 h -3.16776 l -0.83198,2.29443 z m 2.1859,-3.11091 h 2.56831 l -0.79064,-2.09806 q -0.36174,-0.95601 -0.53744,-1.57096 -0.14469,0.72864 -0.40824,1.44694 z"
       id="path33428" />
  </g>
  <g
     aria-label="B"
     id="text30971"
     style="font-size:10.5833px;line-height:1.25;font-family:Arial;-inkscape-font-specification:Arial;fill:#800080;stroke-width:1.97935"
     transform="matrix(0.22222933,-0.13357106,0.12830417,0.23135185,29.547493,69.740621)">
    <path
       style="stroke-width:1.97935"
       d="m 132.48289,185.11253 v -7.57574 h 2.8422 q 0.86816,0 1.39009,0.23255 0.5271,0.22737 0.82165,0.70796 0.29972,0.47542 0.29972,0.99735 0,0.48576 -0.26355,0.91467 -0.26354,0.42892 -0.79581,0.69246 0.68729,0.20154 1.0542,0.6873 0.37207,0.48576 0.37207,1.14721 0,0.53227 -0.22738,0.99219 -0.22221,0.45475 -0.55294,0.70279 -0.33072,0.24805 -0.83198,0.37724 -0.4961,0.12402 -1.21956,0.12402 z m 1.00252,-4.39248 h 1.63814 q 0.66662,0 0.95601,-0.0878 0.38241,-0.11369 0.57361,-0.37724 0.19637,-0.26354 0.19637,-0.66145 0,-0.37724 -0.18087,-0.66146 -0.18087,-0.28939 -0.51676,-0.39274 -0.3359,-0.10852 -1.15238,-0.10852 h -1.51412 z m 0,3.49848 h 1.88619 q 0.48575,0 0.68212,-0.0362 0.34623,-0.062 0.57878,-0.2067 0.23254,-0.1447 0.3824,-0.41858 0.14986,-0.27905 0.14986,-0.64079 0,-0.42374 -0.21704,-0.7338 -0.21704,-0.31523 -0.60461,-0.43925 -0.3824,-0.12919 -1.10587,-0.12919 h -1.75183 z"
       id="path33407" />
  </g>
</svg>
